<?xml version="1.0" encoding="UTF-8" standalone="no"?>
<svg
   xmlns:dc="http://purl.org/dc/elements/1.1/"
   xmlns:cc="http://creativecommons.org/ns#"
   xmlns:rdf="http://www.w3.org/1999/02/22-rdf-syntax-ns#"
   xmlns:svg="http://www.w3.org/2000/svg"
   xmlns="http://www.w3.org/2000/svg"
   xmlns:sodipodi="http://sodipodi.sourceforge.net/DTD/sodipodi-0.dtd"
   xmlns:inkscape="http://www.inkscape.org/namespaces/inkscape"
   version="1.1"
   width="81.440002"
   height="57.73"
   viewBox="0 0 81.440002 57.73"
   xml:space="preserve"
   id="svg84"
   sodipodi:docname="logo_lookback.svg"
   inkscape:version="1.0.1 (3bc2e813f5, 2020-09-07)"><metadata
   id="metadata88"><rdf:RDF><cc:Work
       rdf:about=""><dc:format>image/svg+xml</dc:format><dc:type
         rdf:resource="http://purl.org/dc/dcmitype/StillImage" /></cc:Work></rdf:RDF></metadata><sodipodi:namedview
   pagecolor="#ffffff"
   bordercolor="#666666"
   borderopacity="1"
   objecttolerance="10"
   gridtolerance="10"
   guidetolerance="10"
   inkscape:pageopacity="0"
   inkscape:pageshadow="2"
   inkscape:window-width="1920"
   inkscape:window-height="1017"
   id="namedview86"
   showgrid="false"
   inkscape:zoom="1.7"
   inkscape:cx="-31.67888"
   inkscape:cy="69.201804"
   inkscape:window-x="-8"
   inkscape:window-y="-8"
   inkscape:window-maximized="1"
   inkscape:current-layer="svg84" />
<desc
   id="desc2">Created with Fabric.js 3.6.3</desc>
<defs
   id="defs4">
</defs>

<g
   transform="translate(40.5,30.250004)"
   style="fill:#000000"
   id="g12"><path
     fill="#ffffff"
     opacity="1"
     d="M -40.5,27.48 V 26.6 h 0.44 q 0.7,0 1.22,-0.48 0.53,-0.48 0.92,-1.18 0.4,-0.7 0.61,-1.49 0.22,-0.78 0.22,-1.48 v 0 -46.8 q 0,-0.61 -0.22,-1.4 -0.21,-0.79 -0.61,-1.49 -0.39,-0.7 -0.92,-1.18 -0.52,-0.48 -1.22,-0.48 v 0 h -0.44 v -0.87 h 12.6 v 0.87 h -0.44 q -0.7,0 -1.22,0.48 -0.53,0.48 -0.88,1.18 -0.35,0.7 -0.57,1.49 -0.22,0.79 -0.22,1.4 v 0 49.07 h 19.16 q 1.66,0 2.89,-0.79 1.22,-0.78 2.05,-1.96 0.83,-1.18 1.23,-2.54 0.39,-1.36 0.39,-2.49 v 0 h 0.87 v 11.02 z"
     id="path8"
     style="fill:#000000" /><path
     fill="#ffffff"
     opacity="1"
     d="M 5.6,27.48 V 26.6 h 0.44 q 0.61,0 1.13,-0.52 0.53,-0.53 0.92,-1.23 0.39,-0.7 0.57,-1.53 0.17,-0.83 0.17,-1.53 v 0 -46.53 q 0,-0.61 -0.17,-1.4 -0.18,-0.79 -0.57,-1.53 -0.39,-0.75 -0.96,-1.23 -0.57,-0.48 -1.27,-0.48 v 0 H 5.42 v -0.87 h 14.35 q 8.13,0 12.72,3.58 4.6,3.59 4.6,9.54 v 0 q 0,2.53 -0.88,4.55 -0.87,2.01 -2.23,3.58 -1.35,1.58 -2.93,2.67 -1.57,1.09 -2.97,1.79 v 0 q 3.67,0.7 6.12,2.37 2.45,1.66 3.98,3.8 1.53,2.14 2.14,4.59 0.62,2.45 0.62,4.81 v 0 q 0,4.55 -1.67,7.66 -1.66,3.1 -4.41,5.07 -2.76,1.97 -6.3,2.84 -3.54,0.88 -7.3,0.88 v 0 z M 34.99,12.52 V 11.56 Q 34.29,4.82 30.44,1.15 26.59,-2.52 19.59,-2.52 v 0 h -4.9 v 27.11 h 5.08 q 7.08,0 11.15,-3.19 4.07,-3.19 4.07,-8.88 z M 31.4,-15.73 v -0.61 q -0.26,-5.08 -3.54,-8.05 -3.28,-2.98 -8.79,-2.98 v 0 h -4.38 v 22.05 h 4.55 q 3.68,0 5.99,-0.97 2.32,-0.96 3.72,-2.49 1.4,-1.53 1.93,-3.37 0.52,-1.83 0.52,-3.58 z"
     id="path10"
     style="fill:#000000" /></g>





</svg>
